<svg width="37" height="37" viewBox="0 0 37 37" fill="none" xmlns="http://www.w3.org/2000/svg">
<path d="M18.5001 0.570312C14.9539 0.570312 11.4874 1.62187 8.53887 3.59201C5.59035 5.56215 3.29225 8.36238 1.9352 11.6386C0.578142 14.9148 0.223075 18.5199 0.914896 21.9979C1.60672 25.4759 3.31435 28.6707 5.82187 31.1782C8.32938 33.6857 11.5241 35.3934 15.0022 36.0852C18.4802 36.777 22.0852 36.4219 25.3615 35.0649C28.6377 33.7078 31.4379 31.4097 33.4081 28.4612C35.3782 25.5127 36.4298 22.0462 36.4298 18.5C36.4242 13.7465 34.5334 9.18922 31.1721 5.82796C27.8108 2.4667 23.2536 0.575895 18.5001 0.570312ZM18.5001 34.3203C15.3711 34.3203 12.3124 33.3925 9.71077 31.6541C7.10914 29.9158 5.08141 27.445 3.88401 24.5542C2.6866 21.6634 2.37331 18.4825 2.98374 15.4136C3.59417 12.3448 5.10091 9.52586 7.31342 7.31335C9.52593 5.10084 12.3448 3.5941 15.4137 2.98367C18.4825 2.37324 21.6635 2.68654 24.5542 3.88394C27.445 5.08134 29.9158 7.10907 31.6542 9.71071C33.3925 12.3123 34.3204 15.371 34.3204 18.5C34.3157 22.6944 32.6475 26.7156 29.6816 29.6815C26.7157 32.6474 22.6944 34.3157 18.5001 34.3203ZM26.4665 9.11855L15.2165 14.7436C15.0117 14.8457 14.8458 15.0117 14.7436 15.2164L9.11862 26.4664C9.03833 26.6272 9.00048 26.8059 9.00866 26.9855C9.01683 27.165 9.07077 27.3395 9.16534 27.4924C9.25991 27.6453 9.39197 27.7714 9.54901 27.8589C9.70604 27.9464 9.88282 27.9922 10.0626 27.9922C10.226 27.9919 10.3872 27.954 10.5337 27.8814L21.7837 22.2564C21.9884 22.1543 22.1544 21.9883 22.2565 21.7836L27.8815 10.5336C27.9805 10.3356 28.0147 10.1115 27.9793 9.89296C27.9438 9.67444 27.8405 9.47263 27.684 9.31609C27.5274 9.15956 27.3256 9.05625 27.1071 9.0208C26.8886 8.98534 26.6645 9.01954 26.4665 9.11855ZM20.5268 20.5268L12.4216 24.5785L16.4645 16.4732L24.5698 12.4303L20.5268 20.5268Z" fill="black"/>
</svg>
