<svg width="53" height="53" viewBox="0 0 53 53" fill="none" xmlns="http://www.w3.org/2000/svg">
<circle cx="26.5" cy="26.5" r="19.5" fill="#3F57FF"/>
<path d="M26.4999 5.38293C22.3233 5.38293 18.2405 6.62144 14.7678 8.94183C11.2951 11.2622 8.58846 14.5603 6.99015 18.419C5.39184 22.2776 4.97365 26.5238 5.78846 30.6201C6.60327 34.7164 8.61449 38.4791 11.5678 41.4324C14.5211 44.3857 18.2838 46.3969 22.3801 47.2118C26.4765 48.0266 30.7224 47.6084 34.5811 46.0101C38.4398 44.4118 41.7378 41.7051 44.0582 38.2324C46.3786 34.7597 47.6171 30.6769 47.6171 26.5003C47.6105 20.9017 45.3836 15.5341 41.4247 11.5753C37.4659 7.61648 32.0985 5.38951 26.4999 5.38293ZM26.4999 45.1331C22.8147 45.1331 19.2122 44.0403 16.1481 41.9929C13.0839 39.9455 10.6957 37.0355 9.28541 33.6308C7.87514 30.2261 7.50615 26.4796 8.2251 22.8651C8.94405 19.2507 10.7187 15.9306 13.3245 13.3248C15.9303 10.7189 19.2504 8.94429 22.8648 8.22534C26.4792 7.50639 30.2257 7.87538 33.6304 9.28566C37.0351 10.6959 39.9451 13.0842 41.9925 16.1483C44.0399 19.2125 45.1327 22.8151 45.1327 26.5003C45.1272 31.4403 43.1624 36.1765 39.6692 39.6697C36.1761 43.1628 31.4399 45.1277 26.4999 45.1331ZM35.7136 15.6188L22.4636 22.2438C22.2225 22.3642 22.027 22.5596 21.9067 22.8008L15.2817 36.0508C15.1872 36.2402 15.1426 36.4506 15.1522 36.6621C15.1618 36.8736 15.2254 37.0791 15.3367 37.2591C15.4481 37.4392 15.6037 37.5878 15.7886 37.6908C15.9736 37.7938 16.1818 37.8479 16.3935 37.8478C16.586 37.8475 16.7758 37.8028 16.9483 37.7174L30.1983 31.0924C30.4395 30.972 30.6349 30.7766 30.7552 30.5354L37.3802 17.2854C37.4969 17.0523 37.5371 16.7883 37.4954 16.5309C37.4536 16.2736 37.3319 16.0359 37.1476 15.8515C36.9632 15.6671 36.7255 15.5455 36.4682 15.5037C36.2108 15.4619 35.9468 15.5022 35.7136 15.6188Z" fill="#3F57FF"/>
<path d="M22.4636 22.2438L35.7136 15.6188C35.9468 15.5022 36.2108 15.4619 36.4682 15.5037C36.7255 15.5455 36.9632 15.6671 37.1476 15.8515C37.3319 16.0359 37.4536 16.2736 37.4954 16.5309C37.5371 16.7883 37.4969 17.0523 37.3802 17.2854L30.7552 30.5354C30.6349 30.7766 30.4395 30.972 30.1983 31.0924L16.9483 37.7174C16.7758 37.8028 16.586 37.8475 16.3935 37.8478C16.1818 37.8479 15.9736 37.7938 15.7886 37.6908C15.6037 37.5878 15.4481 37.4392 15.3367 37.2591C15.2254 37.0791 15.1618 36.8736 15.1522 36.6621C15.1426 36.4506 15.1872 36.2402 15.2817 36.0508L21.9067 22.8008C22.027 22.5596 22.2225 22.3642 22.4636 22.2438Z" fill="white"/>
</svg>
