<svg width="45" height="45" viewBox="0 0 45 45" fill="none" xmlns="http://www.w3.org/2000/svg">
<circle cx="22" cy="22" r="17" fill="#8796FF"/>
<path d="M22.5 4.57031C18.9539 4.57031 15.4873 5.62187 12.5388 7.59201C9.59028 9.56215 7.29219 12.3624 5.93514 15.6386C4.57808 18.9148 4.22301 22.5199 4.91483 25.9979C5.60666 29.4759 7.31429 32.6707 9.8218 35.1782C12.3293 37.6857 15.5241 39.3934 19.0021 40.0852C22.4801 40.777 26.0852 40.4219 29.3614 39.0649C32.6376 37.7078 35.4379 35.4097 37.408 32.4612C39.3781 29.5127 40.4297 26.0462 40.4297 22.5C40.4241 17.7465 38.5333 13.1892 35.172 9.82796C31.8108 6.4667 27.2535 4.5759 22.5 4.57031ZM22.5 38.3203C19.371 38.3203 16.3124 37.3925 13.7107 35.6541C11.1091 33.9158 9.08135 31.445 7.88395 28.5542C6.68654 25.6634 6.37325 22.4825 6.98368 19.4136C7.59411 16.3448 9.10085 13.5259 11.3134 11.3134C13.5259 9.10084 16.3448 7.5941 19.4136 6.98367C22.4825 6.37324 25.6634 6.68654 28.5542 7.88394C31.445 9.08134 33.9158 11.1091 35.6541 13.7107C37.3925 16.3123 38.3203 19.371 38.3203 22.5C38.3157 26.6944 36.6474 30.7156 33.6815 33.6815C30.7156 36.6474 26.6944 38.3157 22.5 38.3203ZM30.4664 13.1186L19.2164 18.7436C19.0117 18.8457 18.8457 19.0117 18.7436 19.2164L13.1186 30.4664C13.0383 30.6272 13.0004 30.8059 13.0086 30.9855C13.0168 31.165 13.0707 31.3395 13.1653 31.4924C13.2598 31.6453 13.3919 31.7714 13.5489 31.8589C13.706 31.9464 13.8828 31.9922 14.0625 31.9922C14.226 31.9919 14.3871 31.954 14.5336 31.8814L25.7836 26.2564C25.9883 26.1543 26.1543 25.9883 26.2565 25.7836L31.8815 14.5336C31.9805 14.3356 32.0147 14.1115 31.9792 13.893C31.9438 13.6744 31.8404 13.4726 31.6839 13.3161C31.5274 13.1596 31.3256 13.0562 31.1071 13.0208C30.8885 12.9853 30.6644 13.0195 30.4664 13.1186ZM24.5268 24.5268L16.4215 28.5785L20.4645 20.4732L28.5697 16.4303L24.5268 24.5268Z" fill="#8796FF"/>
<path d="M18.8678 18.3452L31.3116 12.1232C31.5306 12.0137 31.7785 11.9758 32.0202 12.0151C32.2619 12.0543 32.4852 12.1686 32.6583 12.3417C32.8315 12.5148 32.9457 12.7381 32.9849 12.9798C33.0242 13.2215 32.9863 13.4694 32.8768 13.6884L26.6549 26.1325C26.5419 26.3589 26.3583 26.5425 26.1319 26.6555L13.688 32.8775C13.526 32.9578 13.3478 32.9997 13.167 33C12.9681 33.0001 12.7726 32.9493 12.5989 32.8525C12.4252 32.7558 12.2791 32.6162 12.1745 32.4472C12.0699 32.2781 12.0103 32.0851 12.0012 31.8864C11.9922 31.6878 12.034 31.4902 12.1228 31.3123L18.3448 18.8682C18.4577 18.6418 18.6413 18.4582 18.8678 18.3452Z" fill="#434971"/>
</svg>
