<svg width="45" height="45" viewBox="0 0 45 45" fill="none" xmlns="http://www.w3.org/2000/svg">
<path d="M22.5 1.38281C18.3234 1.38281 14.2406 2.62131 10.7679 4.9417C7.29522 7.26209 4.58858 10.5601 2.99027 14.4188C1.39196 18.2775 0.973772 22.5234 1.78858 26.6198C2.60339 30.7161 4.61461 34.4788 7.5679 37.4321C10.5212 40.3854 14.2839 42.3966 18.3803 43.2114C22.4766 44.0262 26.7225 43.6081 30.5812 42.0097C34.4399 40.4114 37.7379 37.7048 40.0583 34.2321C42.3787 30.7594 43.6172 26.6766 43.6172 22.5C43.6106 16.9014 41.3837 11.534 37.4249 7.57516C33.466 3.61634 28.0986 1.38939 22.5 1.38281ZM22.5 41.1328C18.8148 41.1328 15.2123 40.04 12.1482 37.9926C9.08402 35.9452 6.69581 33.0352 5.28554 29.6305C3.87526 26.2258 3.50627 22.4793 4.22522 18.8649C4.94417 15.2505 6.71878 11.9305 9.32462 9.32461C11.9305 6.71877 15.2505 4.94416 18.8649 4.22521C22.4793 3.50626 26.2258 3.87525 29.6305 5.28553C33.0352 6.6958 35.9452 9.08401 37.9926 12.1482C40.04 15.2123 41.1328 18.8148 41.1328 22.5C41.1273 27.44 39.1625 32.1762 35.6693 35.6693C32.1762 39.1625 27.4401 41.1273 22.5 41.1328ZM31.8827 11.4507L18.6327 18.0757C18.3915 18.1961 18.1961 18.3915 18.0758 18.6327L11.4508 31.8827C11.3562 32.0721 11.3116 32.2825 11.3212 32.494C11.3309 32.7055 11.3944 32.911 11.5058 33.091C11.6172 33.2711 11.7727 33.4197 11.9576 33.5227C12.1426 33.6257 12.3508 33.6798 12.5625 33.6797C12.755 33.6794 12.9449 33.6347 13.1174 33.5493L26.3674 26.9243C26.6085 26.8039 26.804 26.6085 26.9243 26.3673L33.5493 13.1173C33.6659 12.8842 33.7062 12.6202 33.6644 12.3628C33.6227 12.1055 33.501 11.8678 33.3166 11.6834C33.1323 11.499 32.8946 11.3774 32.6372 11.3356C32.3798 11.2938 32.1159 11.3341 31.8827 11.4507ZM24.8871 24.8871L15.3409 29.6591L20.1026 20.1129L29.6488 15.3512L24.8871 24.8871Z" fill="black"/>
</svg>
