<svg width="28" height="28" viewBox="0 0 28 28" fill="none" xmlns="http://www.w3.org/2000/svg">
<path d="M14 2.84375C11.7935 2.84375 9.63656 3.49805 7.80192 4.72392C5.96729 5.94978 4.53736 7.69215 3.69297 9.73069C2.84858 11.7692 2.62765 14.0124 3.05812 16.1765C3.48859 18.3406 4.55112 20.3284 6.11135 21.8887C7.67158 23.4489 9.65943 24.5114 11.8235 24.9419C13.9876 25.3724 16.2308 25.1514 18.2693 24.307C20.3079 23.4626 22.0502 22.0327 23.2761 20.1981C24.502 18.3634 25.1563 16.2065 25.1563 14C25.1528 11.0422 23.9763 8.20663 21.8848 6.11518C19.7934 4.02373 16.9578 2.84722 14 2.84375ZM14 23.8438C12.0531 23.8438 10.1499 23.2664 8.53111 22.1848C6.91231 21.1031 5.65062 19.5658 4.90557 17.767C4.16052 15.9683 3.96558 13.9891 4.3454 12.0796C4.72522 10.1701 5.66275 8.41609 7.03942 7.03942C8.4161 5.66274 10.1701 4.72522 12.0796 4.34539C13.9891 3.96557 15.9683 4.16051 17.767 4.90556C19.5658 5.65061 21.1031 6.91231 22.1848 8.53111C23.2664 10.1499 23.8438 12.0531 23.8438 14C23.8409 16.6098 22.8028 19.112 20.9574 20.9574C19.112 22.8028 16.6098 23.8409 14 23.8438ZM18.9569 8.16266L11.9569 11.6627C11.8295 11.7262 11.7262 11.8295 11.6627 11.9569L8.16266 18.9569C8.1127 19.0569 8.08915 19.1681 8.09424 19.2798C8.09932 19.3916 8.13288 19.5002 8.19173 19.5953C8.25057 19.6904 8.33275 19.7689 8.43045 19.8233C8.52816 19.8777 8.63816 19.9063 8.75001 19.9062C8.85171 19.9061 8.952 19.8825 9.04313 19.8373L16.0431 16.3373C16.1705 16.2738 16.2738 16.1705 16.3373 16.0431L19.8374 9.04313C19.899 8.91993 19.9202 8.78047 19.8982 8.64451C19.8761 8.50854 19.8118 8.38297 19.7144 8.28557C19.617 8.18817 19.4915 8.12389 19.3555 8.10183C19.2195 8.07977 19.0801 8.10105 18.9569 8.16266ZM15.2611 15.2611L10.2178 17.7822L12.7334 12.7389L17.7767 10.2233L15.2611 15.2611Z" fill="white"/>
</svg>
