<svg width="53" height="53" viewBox="0 0 53 53" fill="none" xmlns="http://www.w3.org/2000/svg">
<path d="M26.5 5.38281C22.3234 5.38281 18.2406 6.62131 14.7679 8.9417C11.2952 11.2621 8.58858 14.5601 6.99027 18.4188C5.39196 22.2775 4.97377 26.5234 5.78858 30.6198C6.60339 34.7161 8.61461 38.4788 11.5679 41.4321C14.5212 44.3854 18.2839 46.3966 22.3803 47.2114C26.4766 48.0262 30.7225 47.6081 34.5812 46.0097C38.4399 44.4114 41.7379 41.7048 44.0583 38.2321C46.3787 34.7594 47.6172 30.6766 47.6172 26.5C47.6106 20.9014 45.3837 15.534 41.4249 11.5752C37.466 7.61634 32.0986 5.38939 26.5 5.38281ZM26.5 45.1328C22.8148 45.1328 19.2123 44.04 16.1482 41.9926C13.084 39.9452 10.6958 37.0352 9.28554 33.6305C7.87526 30.2258 7.50627 26.4793 8.22522 22.8649C8.94417 19.2505 10.7188 15.9305 13.3246 13.3246C15.9305 10.7188 19.2505 8.94416 22.8649 8.22521C26.4793 7.50626 30.2258 7.87525 33.6305 9.28553C37.0352 10.6958 39.9452 13.084 41.9926 16.1482C44.04 19.2123 45.1328 22.8148 45.1328 26.5C45.1273 31.4401 43.1625 36.1762 39.6693 39.6693C36.1762 43.1625 31.4401 45.1273 26.5 45.1328ZM35.8827 15.4507L22.6327 22.0757C22.3915 22.1961 22.1961 22.3915 22.0758 22.6327L15.4508 35.8827C15.3562 36.0721 15.3116 36.2825 15.3212 36.494C15.3309 36.7055 15.3944 36.911 15.5058 37.091C15.6172 37.2711 15.7727 37.4197 15.9576 37.5227C16.1426 37.6257 16.3508 37.6798 16.5625 37.6797C16.755 37.6794 16.9449 37.6347 17.1174 37.5493L30.3674 30.9243C30.6085 30.8039 30.804 30.6085 30.9243 30.3673L37.5493 17.1173C37.6659 16.8842 37.7062 16.6202 37.6644 16.3628C37.6227 16.1055 37.501 15.8678 37.3166 15.6834C37.1323 15.499 36.8946 15.3774 36.6372 15.3356C36.3798 15.2938 36.1159 15.3341 35.8827 15.4507ZM28.8871 28.8871L19.3409 33.6591L24.1026 24.1129L33.6488 19.3512L28.8871 28.8871Z" fill="black"/>
</svg>
