<svg width="40" height="40" viewBox="0 0 40 40" fill="none" xmlns="http://www.w3.org/2000/svg">
<g clip-path="url(#clip0_707_716)">
<path d="M12.25 8.75C8.125 8.75 4.75 12.125 4.75 16.25C4.75 18.73 5.97125 20.9375 7.83625 22.305C4.54 23.94 2.25 27.33 2.25 31.25H4.75C4.75 27.095 8.095 23.75 12.25 23.75C16.405 23.75 19.75 27.095 19.75 31.25H22.25C22.25 27.095 25.595 23.75 29.75 23.75C33.905 23.75 37.25 27.095 37.25 31.25H39.75C39.75 27.3287 37.46 23.94 34.1638 22.305C35.1181 21.6096 35.895 20.6988 36.4313 19.6467C36.9675 18.5946 37.248 17.4309 37.25 16.25C37.25 12.125 33.875 8.75 29.75 8.75C25.625 8.75 22.25 12.125 22.25 16.25C22.25 18.73 23.4712 20.9375 25.3362 22.305C23.5099 23.2029 21.9982 24.6327 21 26.4062C20.0018 24.6327 18.4901 23.2029 16.6638 22.305C17.6181 21.6096 18.395 20.6988 18.9313 19.6467C19.4675 18.5946 19.748 17.4309 19.75 16.25C19.75 12.125 16.375 8.75 12.25 8.75ZM12.25 11.25C15.0288 11.25 17.25 13.4712 17.25 16.25C17.25 19.0288 15.0288 21.25 12.25 21.25C9.47125 21.25 7.25 19.0288 7.25 16.25C7.25 13.4712 9.47125 11.25 12.25 11.25ZM29.75 11.25C32.5288 11.25 34.75 13.4712 34.75 16.25C34.75 19.0288 32.5288 21.25 29.75 21.25C26.9712 21.25 24.75 19.0288 24.75 16.25C24.75 13.4712 26.9712 11.25 29.75 11.25Z" fill="#8796FF"/>
<circle cx="29.5" cy="16.5" r="5.5" fill="#8796FF"/>
<circle cx="12.5" cy="16.5" r="5.5" fill="#8796FF"/>
</g>
<defs>
<clipPath id="clip0_707_716">
<rect width="40" height="40" fill="white"/>
</clipPath>
</defs>
</svg>
