<svg width="40" height="40" viewBox="0 0 40 40" fill="none" xmlns="http://www.w3.org/2000/svg">
<g clip-path="url(#clip0_707_348)">
<path d="M11.25 8.75C7.125 8.75 3.75 12.125 3.75 16.25C3.75 18.73 4.97125 20.9375 6.83625 22.305C3.54 23.94 1.25 27.33 1.25 31.25H3.75C3.75 27.095 7.095 23.75 11.25 23.75C15.405 23.75 18.75 27.095 18.75 31.25H21.25C21.25 27.095 24.595 23.75 28.75 23.75C32.905 23.75 36.25 27.095 36.25 31.25H38.75C38.75 27.3287 36.46 23.94 33.1638 22.305C34.1181 21.6096 34.895 20.6988 35.4313 19.6467C35.9675 18.5946 36.248 17.4309 36.25 16.25C36.25 12.125 32.875 8.75 28.75 8.75C24.625 8.75 21.25 12.125 21.25 16.25C21.25 18.73 22.4712 20.9375 24.3362 22.305C22.5099 23.2029 20.9982 24.6327 20 26.4062C19.0018 24.6327 17.4901 23.2029 15.6638 22.305C16.6181 21.6096 17.395 20.6988 17.9313 19.6467C18.4675 18.5946 18.748 17.4309 18.75 16.25C18.75 12.125 15.375 8.75 11.25 8.75ZM11.25 11.25C14.0288 11.25 16.25 13.4712 16.25 16.25C16.25 19.0288 14.0288 21.25 11.25 21.25C8.47125 21.25 6.25 19.0288 6.25 16.25C6.25 13.4712 8.47125 11.25 11.25 11.25ZM28.75 11.25C31.5288 11.25 33.75 13.4712 33.75 16.25C33.75 19.0288 31.5288 21.25 28.75 21.25C25.9712 21.25 23.75 19.0288 23.75 16.25C23.75 13.4712 25.9712 11.25 28.75 11.25Z" fill="white"/>
</g>
<defs>
<clipPath id="clip0_707_348">
<rect width="40" height="40" fill="white"/>
</clipPath>
</defs>
</svg>
