<svg width="39" height="24" viewBox="0 0 39 24" fill="none" xmlns="http://www.w3.org/2000/svg">
<path d="M10.7501 0.75C6.62506 0.75 3.25006 4.125 3.25006 8.25C3.25006 10.73 4.47131 12.9375 6.33631 14.305C3.04006 15.94 0.750061 19.33 0.750061 23.25H3.25006C3.25006 19.095 6.59506 15.75 10.7501 15.75C14.9051 15.75 18.2501 19.095 18.2501 23.25H20.7501C20.7501 19.095 24.0951 15.75 28.2501 15.75C32.4051 15.75 35.7501 19.095 35.7501 23.25H38.2501C38.2501 19.3287 35.9601 15.94 32.6638 14.305C33.6182 13.6096 34.3951 12.6988 34.9313 11.6467C35.4676 10.5946 35.7481 9.43087 35.7501 8.25C35.7501 4.125 32.3751 0.75 28.2501 0.75C24.1251 0.75 20.7501 4.125 20.7501 8.25C20.7501 10.73 21.9713 12.9375 23.8363 14.305C22.01 15.2029 20.4983 16.6327 19.5001 18.4062C18.5019 16.6327 16.9901 15.2029 15.1638 14.305C16.1182 13.6096 16.8951 12.6988 17.4313 11.6467C17.9676 10.5946 18.2481 9.43087 18.2501 8.25C18.2501 4.125 14.8751 0.75 10.7501 0.75ZM10.7501 3.25C13.5288 3.25 15.7501 5.47125 15.7501 8.25C15.7501 11.0288 13.5288 13.25 10.7501 13.25C7.97131 13.25 5.75006 11.0288 5.75006 8.25C5.75006 5.47125 7.97131 3.25 10.7501 3.25ZM28.2501 3.25C31.0288 3.25 33.2501 5.47125 33.2501 8.25C33.2501 11.0288 31.0288 13.25 28.2501 13.25C25.4713 13.25 23.2501 11.0288 23.2501 8.25C23.2501 5.47125 25.4713 3.25 28.2501 3.25Z" fill="black"/>
</svg>
