<svg width="28" height="28" viewBox="0 0 28 28" fill="none" xmlns="http://www.w3.org/2000/svg">
<path d="M7.875 6.125C4.9875 6.125 2.625 8.4875 2.625 11.375C2.625 13.111 3.47987 14.6562 4.78537 15.6135C2.478 16.758 0.875 19.131 0.875 21.875H2.625C2.625 18.9665 4.9665 16.625 7.875 16.625C10.7835 16.625 13.125 18.9665 13.125 21.875H14.875C14.875 18.9665 17.2165 16.625 20.125 16.625C23.0335 16.625 25.375 18.9665 25.375 21.875H27.125C27.125 19.1301 25.522 16.758 23.2146 15.6135C23.8827 15.1267 24.4265 14.4892 24.8019 13.7527C25.1773 13.0162 25.3736 12.2016 25.375 11.375C25.375 8.4875 23.0125 6.125 20.125 6.125C17.2375 6.125 14.875 8.4875 14.875 11.375C14.875 13.111 15.7299 14.6563 17.0354 15.6135C15.7569 16.2421 14.6987 17.2429 14 18.4844C13.3013 17.2429 12.2431 16.2421 10.9646 15.6135C11.6327 15.1267 12.1765 14.4892 12.5519 13.7527C12.9273 13.0162 13.1236 12.2016 13.125 11.375C13.125 8.4875 10.7625 6.125 7.875 6.125ZM7.875 7.875C9.82012 7.875 11.375 9.42987 11.375 11.375C11.375 13.3201 9.82012 14.875 7.875 14.875C5.92987 14.875 4.375 13.3201 4.375 11.375C4.375 9.42987 5.92987 7.875 7.875 7.875ZM20.125 7.875C22.0701 7.875 23.625 9.42987 23.625 11.375C23.625 13.3201 22.0701 14.875 20.125 14.875C18.1799 14.875 16.625 13.3201 16.625 11.375C16.625 9.42987 18.1799 7.875 20.125 7.875Z" fill="white"/>
</svg>
