<svg width="145" height="19" viewBox="0 0 145 19" fill="none" xmlns="http://www.w3.org/2000/svg">
<path d="M7.848 18.168C6.504 18.168 5.304 17.888 4.248 17.328C3.208 16.752 2.392 15.968 1.8 14.976C1.208 13.984 0.912 12.856 0.912 11.592C0.912 10.312 1.208 9.184 1.8 8.208C2.392 7.216 3.208 6.44 4.248 5.88C5.304 5.32 6.504 5.04 7.848 5.04C9.096 5.04 10.192 5.296 11.136 5.808C12.096 6.304 12.824 7.04 13.32 8.016L11.016 9.36C10.632 8.752 10.16 8.304 9.6 8.016C9.056 7.728 8.464 7.584 7.824 7.584C7.088 7.584 6.424 7.744 5.832 8.064C5.24 8.384 4.776 8.848 4.44 9.456C4.104 10.048 3.936 10.76 3.936 11.592C3.936 12.424 4.104 13.144 4.44 13.752C4.776 14.344 5.24 14.8 5.832 15.12C6.424 15.44 7.088 15.6 7.824 15.6C8.464 15.6 9.056 15.456 9.6 15.168C10.16 14.88 10.632 14.432 11.016 13.824L13.32 15.168C12.824 16.128 12.096 16.872 11.136 17.4C10.192 17.912 9.096 18.168 7.848 18.168ZM23.8093 18V15.408L23.6413 14.856V10.32C23.6413 9.44 23.3773 8.76 22.8493 8.28C22.3213 7.784 21.5213 7.536 20.4493 7.536C19.7293 7.536 19.0173 7.648 18.3133 7.872C17.6253 8.096 17.0413 8.408 16.5613 8.808L15.3853 6.624C16.0733 6.096 16.8893 5.704 17.8333 5.448C18.7933 5.176 19.7853 5.04 20.8093 5.04C22.6653 5.04 24.0973 5.488 25.1053 6.384C26.1293 7.264 26.6413 8.632 26.6413 10.488V18H23.8093ZM19.7773 18.168C18.8173 18.168 17.9773 18.008 17.2573 17.688C16.5373 17.352 15.9773 16.896 15.5773 16.32C15.1933 15.728 15.0013 15.064 15.0013 14.328C15.0013 13.608 15.1693 12.96 15.5053 12.384C15.8573 11.808 16.4253 11.352 17.2093 11.016C17.9933 10.68 19.0333 10.512 20.3293 10.512H24.0493V12.504H20.5453C19.5213 12.504 18.8333 12.672 18.4813 13.008C18.1293 13.328 17.9533 13.728 17.9533 14.208C17.9533 14.752 18.1693 15.184 18.6013 15.504C19.0333 15.824 19.6333 15.984 20.4013 15.984C21.1373 15.984 21.7933 15.816 22.3693 15.48C22.9613 15.144 23.3853 14.648 23.6413 13.992L24.1453 15.792C23.8573 16.544 23.3373 17.128 22.5853 17.544C21.8493 17.96 20.9133 18.168 19.7773 18.168ZM30.4914 18V0.191999H33.4914V18H30.4914ZM43.4529 18.168C42.0289 18.168 40.7809 17.888 39.7089 17.328C38.6529 16.752 37.8289 15.968 37.2369 14.976C36.6609 13.984 36.3729 12.856 36.3729 11.592C36.3729 10.312 36.6529 9.184 37.2129 8.208C37.7889 7.216 38.5729 6.44 39.5649 5.88C40.5729 5.32 41.7169 5.04 42.9969 5.04C44.2449 5.04 45.3569 5.312 46.3329 5.856C47.3089 6.4 48.0769 7.168 48.6369 8.16C49.1969 9.152 49.4769 10.32 49.4769 11.664C49.4769 11.792 49.4689 11.936 49.4529 12.096C49.4529 12.256 49.4449 12.408 49.4289 12.552H38.7489V10.56H47.8449L46.6689 11.184C46.6849 10.448 46.5329 9.8 46.2129 9.24C45.8929 8.68 45.4529 8.24 44.8929 7.92C44.3489 7.6 43.7169 7.44 42.9969 7.44C42.2609 7.44 41.6129 7.6 41.0529 7.92C40.5089 8.24 40.0769 8.688 39.7569 9.264C39.4529 9.824 39.3009 10.488 39.3009 11.256V11.736C39.3009 12.504 39.4769 13.184 39.8289 13.776C40.1809 14.368 40.6769 14.824 41.3169 15.144C41.9569 15.464 42.6929 15.624 43.5249 15.624C44.2449 15.624 44.8929 15.512 45.4689 15.288C46.0449 15.064 46.5569 14.712 47.0049 14.232L48.6129 16.08C48.0369 16.752 47.3089 17.272 46.4289 17.64C45.5649 17.992 44.5729 18.168 43.4529 18.168ZM59.6306 5.04C60.6546 5.04 61.5666 5.24 62.3666 5.64C63.1826 6.04 63.8226 6.656 64.2866 7.488C64.7506 8.304 64.9826 9.36 64.9826 10.656V18H61.9826V11.04C61.9826 9.904 61.7106 9.056 61.1666 8.496C60.6386 7.936 59.8946 7.656 58.9346 7.656C58.2306 7.656 57.6066 7.8 57.0626 8.088C56.5186 8.376 56.0946 8.808 55.7906 9.384C55.5026 9.944 55.3586 10.656 55.3586 11.52V18H52.3586V5.184H55.2146V8.64L54.7106 7.584C55.1586 6.768 55.8066 6.144 56.6546 5.712C57.5186 5.264 58.5106 5.04 59.6306 5.04ZM74.2358 18.168C73.0038 18.168 71.8918 17.896 70.8998 17.352C69.9238 16.792 69.1558 16.024 68.5958 15.048C68.0358 14.072 67.7558 12.92 67.7558 11.592C67.7558 10.264 68.0358 9.112 68.5958 8.136C69.1558 7.16 69.9238 6.4 70.8998 5.856C71.8918 5.312 73.0038 5.04 74.2358 5.04C75.3078 5.04 76.2678 5.28 77.1158 5.76C77.9638 6.224 78.6358 6.936 79.1318 7.896C79.6278 8.856 79.8758 10.088 79.8758 11.592C79.8758 13.08 79.6358 14.312 79.1558 15.288C78.6758 16.248 78.0118 16.968 77.1638 17.448C76.3158 17.928 75.3398 18.168 74.2358 18.168ZM74.5958 15.6C75.3158 15.6 75.9558 15.44 76.5158 15.12C77.0918 14.8 77.5478 14.336 77.8838 13.728C78.2358 13.12 78.4118 12.408 78.4118 11.592C78.4118 10.76 78.2358 10.048 77.8838 9.456C77.5478 8.848 77.0918 8.384 76.5158 8.064C75.9558 7.744 75.3158 7.584 74.5958 7.584C73.8758 7.584 73.2278 7.744 72.6518 8.064C72.0918 8.384 71.6358 8.848 71.2838 9.456C70.9478 10.048 70.7798 10.76 70.7798 11.592C70.7798 12.408 70.9478 13.12 71.2838 13.728C71.6358 14.336 72.0918 14.8 72.6518 15.12C73.2278 15.44 73.8758 15.6 74.5958 15.6ZM78.4838 18V14.976L78.6038 11.568L78.3638 8.16V0.191999H81.3398V18H78.4838ZM93.1843 18V15.408L93.0163 14.856V10.32C93.0163 9.44 92.7523 8.76 92.2243 8.28C91.6963 7.784 90.8963 7.536 89.8243 7.536C89.1043 7.536 88.3923 7.648 87.6883 7.872C87.0003 8.096 86.4163 8.408 85.9363 8.808L84.7603 6.624C85.4483 6.096 86.2643 5.704 87.2083 5.448C88.1683 5.176 89.1603 5.04 90.1843 5.04C92.0403 5.04 93.4723 5.488 94.4803 6.384C95.5043 7.264 96.0163 8.632 96.0163 10.488V18H93.1843ZM89.1523 18.168C88.1923 18.168 87.3523 18.008 86.6323 17.688C85.9123 17.352 85.3523 16.896 84.9523 16.32C84.5683 15.728 84.3763 15.064 84.3763 14.328C84.3763 13.608 84.5443 12.96 84.8803 12.384C85.2323 11.808 85.8003 11.352 86.5843 11.016C87.3683 10.68 88.4083 10.512 89.7043 10.512H93.4243V12.504H89.9203C88.8963 12.504 88.2083 12.672 87.8563 13.008C87.5043 13.328 87.3283 13.728 87.3283 14.208C87.3283 14.752 87.5443 15.184 87.9763 15.504C88.4083 15.824 89.0083 15.984 89.7763 15.984C90.5123 15.984 91.1683 15.816 91.7443 15.48C92.3363 15.144 92.7603 14.648 93.0163 13.992L93.5203 15.792C93.2323 16.544 92.7123 17.128 91.9603 17.544C91.2243 17.96 90.2883 18.168 89.1523 18.168ZM99.8664 18V5.184H102.722V8.712L102.386 7.68C102.77 6.816 103.37 6.16 104.186 5.712C105.018 5.264 106.05 5.04 107.282 5.04V7.896C107.154 7.864 107.034 7.848 106.922 7.848C106.81 7.832 106.698 7.824 106.586 7.824C105.45 7.824 104.546 8.16 103.874 8.832C103.202 9.488 102.866 10.472 102.866 11.784V18H99.8664Z" fill="black"/>
<path d="M110.353 18V1.2H113.425V13.128L122.449 1.2H125.353V18H122.281V6.096L113.257 18H110.353ZM141.175 18L135.487 9.816L138.007 8.256L144.703 18H141.175ZM130.063 18V1.2H133.135V18H130.063ZM132.199 10.92V8.232H137.863V10.92H132.199ZM138.295 9.96L135.439 9.576L141.175 1.2H144.487L138.295 9.96Z" fill="#3F57FF"/>
</svg>
