<svg width="53" height="48" viewBox="0 0 53 48" fill="none" xmlns="http://www.w3.org/2000/svg">
<path fill-rule="evenodd" clip-rule="evenodd" d="M15.5135 5.9001C16.1579 2.7412 18.9717 0.505859 22.1934 0.505859H30.0798C33.3015 0.505859 36.1129 2.7412 36.7596 5.9001C36.8309 6.24794 37.0173 6.56171 37.2887 6.7909C37.56 7.02009 37.9007 7.15139 38.2558 7.16366H38.3355C41.7212 7.31316 44.3227 7.72792 46.4946 9.15304C47.8629 10.0501 49.0406 11.2027 49.9576 12.5507C51.0991 14.2241 51.601 16.1484 51.8423 18.473C52.0788 20.7469 52.0788 23.5947 52.0788 27.2022V27.4071C52.0788 31.0145 52.0788 33.8648 51.8423 36.1363C51.601 38.4608 51.0991 40.3851 49.9576 42.061C49.0377 43.4098 47.861 44.5643 46.4946 45.4586C44.7981 46.5703 42.8506 47.0622 40.4905 47.2961C38.1786 47.5276 35.2803 47.5276 31.5977 47.5276H20.6754C16.9928 47.5276 14.0946 47.5276 11.7827 47.2961C9.42254 47.0622 7.47506 46.5727 5.77856 45.4586C4.41196 44.5636 3.23523 43.4082 2.31557 42.0586C1.17411 40.3851 0.672156 38.4608 0.430833 36.1363C0.194336 33.8648 0.194336 31.0145 0.194336 27.4071V27.2022C0.194336 23.5947 0.194336 20.7469 0.430833 18.473C0.672156 16.1484 1.17411 14.2241 2.31557 12.5507C3.23523 11.2011 4.41196 10.0457 5.77856 9.15063C7.95047 7.72792 10.5519 7.31316 13.9377 7.16607L13.9787 7.16366H14.0173C14.3725 7.15139 14.7131 7.02009 14.9845 6.7909C15.2559 6.56171 15.4422 6.24794 15.5135 5.9001ZM22.1934 4.12292C20.6489 4.12292 19.353 5.19115 19.061 6.6211C18.5904 8.93601 16.5343 10.759 14.0608 10.7807C10.8077 10.9254 9.06538 11.3233 7.76223 12.1769C6.79424 12.8116 5.96038 13.6301 5.30798 14.5859C4.64192 15.5625 4.24133 16.814 4.02896 18.8467C3.8166 20.9109 3.81418 23.573 3.81418 27.3058C3.81418 31.0386 3.81418 33.6984 4.03138 35.7625C4.24133 37.7953 4.64192 39.0468 5.31039 40.0258C5.95714 40.9759 6.7897 41.7958 7.76465 42.4324C8.77096 43.0931 10.0596 43.491 12.1423 43.6983C14.2514 43.9081 16.9687 43.9105 20.7744 43.9105H31.4988C35.302 43.9105 38.0193 43.9105 40.1309 43.6983C42.2135 43.491 43.5022 43.0955 44.5085 42.4348C45.4835 41.7958 46.3185 40.9759 46.9652 40.0234C47.6312 39.0468 48.0318 37.7953 48.2442 35.7625C48.4566 33.6984 48.459 31.0362 48.459 27.3058C48.459 23.573 48.459 20.9109 48.2418 18.8467C48.0318 16.814 47.6312 15.5625 46.9628 14.5859C46.3111 13.6288 45.4771 12.8094 44.5085 12.1745C43.2102 11.3233 41.4679 10.9254 38.21 10.7807C35.7388 10.7566 33.6828 8.93842 33.2122 6.6211C33.0577 5.90799 32.6617 5.26998 32.091 4.81484C31.5204 4.35969 30.8099 4.11529 30.0798 4.12292H22.1934ZM26.1366 21.0025C24.6965 21.0025 23.3154 21.5741 22.2972 22.5916C21.2789 23.6091 20.7068 24.9891 20.7068 26.4281C20.7068 27.8671 21.2789 29.2471 22.2972 30.2646C23.3154 31.2821 24.6965 31.8537 26.1366 31.8537C27.5767 31.8537 28.9577 31.2821 29.976 30.2646C30.9943 29.2471 31.5664 27.8671 31.5664 26.4281C31.5664 24.9891 30.9943 23.6091 29.976 22.5916C28.9577 21.5741 27.5767 21.0025 26.1366 21.0025ZM17.087 26.4281C17.087 24.0298 18.0404 21.7298 19.7375 20.034C21.4347 18.3382 23.7365 17.3855 26.1366 17.3855C28.5367 17.3855 30.8385 18.3382 32.5356 20.034C34.2328 21.7298 35.1862 24.0298 35.1862 26.4281C35.1862 28.8264 34.2328 31.1264 32.5356 32.8222C30.8385 34.518 28.5367 35.4707 26.1366 35.4707C23.7365 35.4707 21.4347 34.518 19.7375 32.8222C18.0404 31.1264 17.087 28.8264 17.087 26.4281ZM38.8061 19.194C38.8061 18.7143 38.9967 18.2543 39.3362 17.9152C39.6756 17.576 40.136 17.3855 40.616 17.3855H43.0292C43.5092 17.3855 43.9696 17.576 44.309 17.9152C44.6485 18.2543 44.8391 18.7143 44.8391 19.194C44.8391 19.6736 44.6485 20.1336 44.309 20.4728C43.9696 20.812 43.5092 21.0025 43.0292 21.0025H40.616C40.136 21.0025 39.6756 20.812 39.3362 20.4728C38.9967 20.1336 38.8061 19.6736 38.8061 19.194Z" fill="#B3B3B3"/>
</svg>
